%TF.GenerationSoftware,KiCad,Pcbnew,9.0.2*%
%TF.CreationDate,2026-05-28T11:02:04+07:00*%
%TF.ProjectId,IoT2526_HK2,496f5432-3532-4365-9f48-4b322e6b6963,rev?*%
%TF.SameCoordinates,Original*%
%TF.FileFunction,Soldermask,Bot*%
%TF.FilePolarity,Negative*%
%FSLAX46Y46*%
G04 Gerber Fmt 4.6, Leading zero omitted, Abs format (unit mm)*
G04 Created by KiCad (PCBNEW 9.0.2) date 2026-05-28 11:02:04*
%MOMM*%
%LPD*%
G01*
G04 APERTURE LIST*
%ADD10R,2.000000X2.000000*%
%ADD11C,2.000000*%
%ADD12C,1.440000*%
%ADD13O,1.800000X1.800000*%
%ADD14R,1.800000X1.800000*%
%ADD15R,2.000000X1.200000*%
%ADD16O,2.000000X1.200000*%
%ADD17R,1.700000X1.700000*%
%ADD18C,1.700000*%
%ADD19R,4.600000X2.000000*%
%ADD20O,4.200000X2.000000*%
%ADD21O,2.000000X4.200000*%
%ADD22C,3.200000*%
%ADD23O,1.700000X1.700000*%
%ADD24C,1.000000*%
%ADD25C,1.244600*%
%ADD26O,4.000000X2.000000*%
G04 APERTURE END LIST*
D10*
%TO.C,BZ1*%
X240550000Y-152530000D03*
D11*
X248150000Y-152530000D03*
%TD*%
D12*
%TO.C,RV1*%
X240550000Y-144037800D03*
X240550000Y-141497800D03*
X240550000Y-138957800D03*
%TD*%
D13*
%TO.C,K1*%
X207404796Y-150457800D03*
X207404796Y-157457800D03*
D14*
X212104796Y-138957800D03*
D13*
X207404796Y-138957800D03*
%TD*%
D15*
%TO.C,U6*%
X271400000Y-88160520D03*
D16*
X271400000Y-90700520D03*
X271400000Y-93240520D03*
X271400000Y-95780520D03*
X271400000Y-98320520D03*
X271400000Y-100860520D03*
X271400000Y-103400520D03*
X271400000Y-105940520D03*
X271400000Y-108480520D03*
X271400000Y-111020520D03*
X271400000Y-113560520D03*
X271400000Y-116100520D03*
X271400000Y-118640520D03*
X271400000Y-121180520D03*
X271400000Y-123720520D03*
X271400000Y-126260520D03*
X271400000Y-128800520D03*
X271400000Y-131340520D03*
X271400000Y-133880520D03*
X271400000Y-136417800D03*
X271400000Y-138957800D03*
X271400000Y-141497800D03*
X297260000Y-141500520D03*
X297260000Y-138960520D03*
X297260000Y-136420520D03*
X297260000Y-133880520D03*
X297260000Y-131340520D03*
X297260000Y-128800520D03*
X297260000Y-126260520D03*
X297260000Y-123720520D03*
X297260000Y-121180520D03*
X297260000Y-118640520D03*
X297260000Y-116100520D03*
X297260000Y-113560520D03*
X297260000Y-111020520D03*
X297260000Y-108480520D03*
X297260000Y-105940520D03*
X297260000Y-103400520D03*
X297260000Y-100860520D03*
X297260000Y-98320520D03*
X297260000Y-95780520D03*
X297260000Y-93240520D03*
X297260000Y-90700520D03*
X297260000Y-88160520D03*
%TD*%
D13*
%TO.C,K2*%
X216553296Y-150457800D03*
X216553296Y-157457800D03*
D14*
X221253296Y-138957800D03*
D13*
X216553296Y-138957800D03*
%TD*%
D17*
%TO.C,J4*%
X268525000Y-167121600D03*
D18*
X268525000Y-169661600D03*
X268525000Y-172201600D03*
%TD*%
D17*
%TO.C,J5*%
X268890000Y-146410000D03*
D18*
X268890000Y-148950000D03*
X268890000Y-151490000D03*
X268890000Y-154030000D03*
%TD*%
D13*
%TO.C,K3*%
X225650996Y-150457800D03*
X225650996Y-157457800D03*
D14*
X230350996Y-138957800D03*
D13*
X225650996Y-138957800D03*
%TD*%
D19*
%TO.C,J2*%
X287000000Y-165557200D03*
D20*
X287000000Y-171857200D03*
D21*
X291800000Y-168457200D03*
%TD*%
D22*
%TO.C,REF\u002A\u002A*%
X296375000Y-175900000D03*
%TD*%
D17*
%TO.C,U3*%
X264210000Y-99590000D03*
D23*
X264210000Y-102130000D03*
X264210000Y-104670000D03*
X264210000Y-107210000D03*
X264210000Y-109750000D03*
X264210000Y-112290000D03*
X264210000Y-114830000D03*
X264210000Y-117370000D03*
X264210000Y-119910000D03*
X264210000Y-122450000D03*
X264210000Y-124990000D03*
X206820000Y-108467500D03*
X206820000Y-111007500D03*
X206820000Y-113547500D03*
D17*
X206820000Y-116087500D03*
%TD*%
%TO.C,J3*%
X253025000Y-167121600D03*
D18*
X253025000Y-169661600D03*
X253025000Y-172201600D03*
%TD*%
D24*
%TO.C,BT1*%
X284299998Y-136120000D03*
D25*
X284299998Y-128627000D03*
%TD*%
D22*
%TO.C,REF\u002A\u002A*%
X205750000Y-85000000D03*
%TD*%
D26*
%TO.C,J1*%
X209899600Y-166195000D03*
X219399600Y-166195000D03*
X228899600Y-166195000D03*
X238399600Y-166195000D03*
%TD*%
M02*
