M48
; DRILL file {KiCad 9.0.2} date 2026-05-28T11:02:08+0700
; FORMAT={-:-/ absolute / metric / decimal}
; #@! TF.CreationDate,2026-05-28T11:02:08+07:00
; #@! TF.GenerationSoftware,Kicad,Pcbnew,9.0.2
; #@! TF.FileFunction,Plated,1,2,PTH
FMAT,2
METRIC
; #@! TA.AperFunction,Plated,PTH,ViaDrill
T1C0.300
; #@! TA.AperFunction,Plated,PTH,ComponentDrill
T2C0.800
; #@! TA.AperFunction,Plated,PTH,ComponentDrill
T3C1.000
; #@! TA.AperFunction,Plated,PTH,ComponentDrill
T4C1.100
%
G90
G05
T1
X203.506Y-93.194
X203.506Y-95.734
X203.506Y-98.274
X203.506Y-100.814
X203.506Y-103.354
X203.506Y-105.894
X203.506Y-108.434
X203.506Y-110.974
X203.506Y-113.514
X203.506Y-116.054
X203.506Y-118.594
X203.506Y-121.134
X203.506Y-123.674
X203.506Y-126.214
X203.506Y-128.754
X203.506Y-131.294
X203.506Y-133.834
X203.506Y-136.374
X203.506Y-138.914
X203.506Y-141.454
X203.506Y-143.994
X206.046Y-93.194
X206.046Y-95.734
X206.046Y-98.274
X206.046Y-100.814
X206.046Y-103.354
X206.046Y-105.894
X206.046Y-118.594
X206.046Y-133.834
X206.046Y-136.374
X206.046Y-141.454
X206.046Y-143.994
X207.405Y-123.255
X208.586Y-93.194
X208.586Y-95.734
X208.586Y-98.274
X208.586Y-100.814
X208.586Y-103.354
X208.586Y-136.374
X208.586Y-141.454
X208.586Y-143.994
X211.126Y-93.194
X211.126Y-95.734
X211.126Y-98.274
X211.126Y-100.814
X211.126Y-116.054
X211.126Y-118.594
X211.126Y-126.214
X211.126Y-141.454
X211.126Y-143.994
X213.666Y-93.194
X213.666Y-95.734
X213.666Y-98.274
X213.666Y-113.514
X213.666Y-116.054
X213.666Y-121.134
X213.666Y-123.674
X213.666Y-126.214
X213.666Y-128.754
X213.666Y-131.294
X213.666Y-133.834
X213.666Y-136.374
X213.666Y-143.994
X216.206Y-93.194
X216.206Y-95.734
X216.206Y-110.974
X216.206Y-113.514
X216.206Y-143.994
X216.553Y-123.255
X218.746Y-93.194
X218.746Y-108.434
X218.746Y-110.974
X218.746Y-116.054
X218.746Y-126.214
X218.746Y-136.374
X218.746Y-138.914
X218.746Y-143.994
X221.27Y-99.55
X221.286Y-93.194
X221.286Y-105.894
X221.286Y-108.434
X221.286Y-113.514
X221.286Y-116.054
X221.286Y-126.214
X221.286Y-143.994
X223.81Y-99.55
X223.826Y-93.194
X223.826Y-105.894
X223.826Y-108.434
X223.826Y-113.514
X223.826Y-133.834
X223.826Y-136.374
X223.826Y-138.914
X223.826Y-143.994
X225.651Y-123.255
X226.35Y-99.55
X226.366Y-93.194
X226.366Y-105.894
X226.366Y-108.434
X226.366Y-143.994
X228.89Y-99.55
X228.906Y-93.194
X228.906Y-105.894
X228.906Y-108.434
X228.906Y-116.054
X228.906Y-118.594
X228.906Y-126.214
X228.906Y-136.374
X228.906Y-143.994
X231.43Y-99.55
X231.446Y-93.194
X231.446Y-105.894
X231.446Y-108.434
X231.446Y-116.054
X231.446Y-126.214
X231.446Y-141.454
X231.446Y-143.994
X233.97Y-99.55
X233.986Y-93.194
X233.986Y-105.894
X233.986Y-108.434
X233.986Y-118.594
X233.986Y-121.134
X233.986Y-123.674
X233.986Y-126.214
X233.986Y-128.754
X233.986Y-131.294
X233.986Y-133.834
X233.986Y-136.374
X233.986Y-141.454
X233.986Y-143.994
X236.51Y-99.55
X236.526Y-93.194
X236.526Y-105.894
X236.526Y-108.434
X236.526Y-118.594
X236.526Y-121.134
X236.526Y-123.674
X236.526Y-126.214
X236.526Y-128.754
X236.526Y-131.294
X236.526Y-133.834
X236.526Y-136.374
X236.526Y-141.454
X236.526Y-143.994
X239.05Y-99.55
X239.066Y-93.194
X239.066Y-105.894
X239.066Y-108.434
X239.066Y-118.594
X239.066Y-121.134
X239.066Y-123.674
X239.066Y-126.214
X239.066Y-128.754
X239.066Y-131.294
X239.066Y-133.834
X239.066Y-136.374
X239.066Y-146.534
X239.066Y-149.074
X239.066Y-156.694
X239.066Y-159.234
X241.59Y-99.55
X241.606Y-93.194
X241.606Y-105.894
X241.606Y-108.434
X241.606Y-118.594
X241.606Y-121.134
X241.606Y-123.674
X241.606Y-126.214
X241.606Y-128.754
X241.606Y-131.294
X241.606Y-133.834
X241.606Y-136.374
X241.606Y-146.534
X241.606Y-149.074
X241.606Y-156.694
X241.606Y-159.234
X244.13Y-99.55
X244.146Y-93.194
X244.146Y-105.894
X244.146Y-108.434
X244.146Y-118.594
X244.146Y-121.134
X244.146Y-123.674
X244.146Y-126.214
X244.146Y-128.754
X244.146Y-131.294
X244.146Y-133.834
X244.146Y-136.374
X244.146Y-141.454
X244.146Y-143.994
X244.146Y-146.534
X244.146Y-149.074
X244.146Y-151.614
X244.146Y-154.154
X244.146Y-156.694
X244.146Y-159.234
X246.67Y-99.55
X246.686Y-93.194
X246.686Y-105.894
X246.686Y-108.434
X246.686Y-118.594
X246.686Y-121.134
X246.686Y-123.674
X246.686Y-126.214
X246.686Y-128.754
X246.686Y-131.294
X246.686Y-136.374
X246.686Y-141.454
X246.686Y-143.994
X246.686Y-146.534
X246.686Y-149.074
X246.686Y-154.154
X246.686Y-156.694
X246.686Y-159.234
X249.21Y-99.55
X249.226Y-93.194
X249.226Y-105.894
X249.226Y-108.434
X249.226Y-118.594
X249.226Y-121.134
X249.226Y-123.674
X249.226Y-126.214
X249.226Y-128.754
X249.226Y-131.294
X249.226Y-141.454
X249.226Y-143.994
X249.226Y-146.534
X249.226Y-149.074
X249.226Y-156.694
X249.226Y-159.234
X249.226Y-161.774
X249.226Y-164.314
X249.226Y-166.854
X249.226Y-169.394
X249.226Y-171.934
X249.226Y-174.474
X249.226Y-177.014
X251.75Y-99.55
X251.766Y-93.194
X251.766Y-105.894
X251.766Y-108.434
X251.766Y-118.594
X251.766Y-121.134
X251.766Y-123.674
X251.766Y-126.214
X251.766Y-128.754
X251.766Y-131.294
X251.766Y-141.454
X251.766Y-143.994
X251.766Y-146.534
X251.766Y-149.074
X251.766Y-151.614
X251.766Y-154.154
X251.766Y-156.694
X251.766Y-159.234
X251.766Y-161.774
X251.766Y-164.314
X251.766Y-174.474
X251.766Y-177.014
X254.29Y-99.55
X254.306Y-93.194
X254.306Y-105.894
X254.306Y-108.434
X254.306Y-118.594
X254.306Y-121.134
X254.306Y-123.674
X254.306Y-126.214
X254.306Y-128.754
X254.306Y-131.294
X254.306Y-141.454
X254.306Y-143.994
X254.306Y-146.534
X254.306Y-149.074
X254.306Y-151.614
X254.306Y-154.154
X254.306Y-156.694
X254.306Y-159.234
X254.306Y-161.774
X254.306Y-164.314
X254.306Y-174.474
X254.306Y-177.014
X256.83Y-99.55
X256.846Y-93.194
X256.846Y-105.894
X256.846Y-108.434
X256.846Y-118.594
X256.846Y-121.134
X256.846Y-123.674
X256.846Y-126.214
X256.846Y-128.754
X256.846Y-131.294
X256.846Y-133.834
X256.846Y-143.994
X256.846Y-146.534
X256.846Y-149.074
X256.846Y-151.614
X256.846Y-154.154
X256.846Y-156.694
X256.846Y-159.234
X256.846Y-161.774
X256.846Y-164.314
X256.846Y-171.934
X256.846Y-174.474
X256.846Y-177.014
X259.37Y-99.55
X259.386Y-93.194
X259.386Y-105.894
X259.386Y-108.434
X259.386Y-118.594
X259.386Y-121.134
X259.386Y-123.674
X259.386Y-126.214
X259.386Y-128.754
X259.386Y-131.294
X259.386Y-141.454
X259.386Y-143.994
X259.386Y-146.534
X259.386Y-149.074
X259.386Y-151.614
X259.386Y-154.154
X259.386Y-156.694
X259.386Y-159.234
X259.386Y-161.774
X259.386Y-164.314
X259.386Y-171.934
X259.386Y-174.474
X259.386Y-177.014
X261.91Y-99.55
X261.926Y-83.034
X261.926Y-85.574
X261.926Y-88.114
X261.926Y-90.654
X261.926Y-93.194
X261.926Y-105.894
X261.926Y-108.434
X261.926Y-118.594
X261.926Y-121.134
X261.926Y-123.674
X261.926Y-126.214
X261.926Y-128.754
X261.926Y-131.294
X261.926Y-154.154
X261.926Y-156.694
X261.926Y-159.234
X261.926Y-161.774
X261.926Y-164.314
X261.926Y-171.934
X261.926Y-174.474
X261.926Y-177.014
X263.575Y-146.534
X263.575Y-149.074
X264.466Y-83.034
X264.466Y-85.574
X264.466Y-128.754
X264.466Y-131.294
X264.466Y-136.374
X264.466Y-156.694
X264.466Y-159.234
X264.466Y-161.774
X264.466Y-164.314
X264.466Y-171.934
X264.466Y-174.474
X264.466Y-177.014
X267.006Y-83.034
X267.006Y-85.574
X267.006Y-93.194
X267.006Y-105.894
X267.006Y-108.434
X267.006Y-126.214
X267.006Y-128.754
X267.006Y-141.454
X267.006Y-143.994
X267.006Y-146.534
X267.006Y-149.074
X267.006Y-156.694
X267.006Y-159.234
X267.006Y-161.774
X267.006Y-164.314
X267.006Y-174.474
X267.006Y-177.014
X267.93Y-112.33
X267.93Y-114.88
X267.93Y-117.64
X267.93Y-120.01
X269.546Y-83.034
X269.546Y-85.574
X269.546Y-93.194
X269.546Y-105.894
X269.546Y-108.434
X269.546Y-141.454
X269.546Y-143.994
X269.546Y-156.694
X269.546Y-159.234
X269.546Y-161.774
X269.546Y-164.314
X269.546Y-174.474
X269.546Y-177.014
X272.086Y-83.034
X272.086Y-85.574
X272.086Y-143.994
X272.086Y-171.934
X272.086Y-174.474
X272.086Y-177.014
X274.626Y-83.034
X274.626Y-85.574
X274.626Y-88.114
X274.626Y-93.194
X274.626Y-95.734
X274.626Y-98.274
X274.626Y-100.814
X274.626Y-103.354
X274.626Y-105.894
X274.626Y-108.434
X274.626Y-110.974
X274.626Y-113.514
X274.626Y-133.834
X274.626Y-136.374
X274.626Y-143.994
X274.626Y-146.534
X274.626Y-149.074
X274.626Y-151.614
X274.626Y-154.154
X274.626Y-159.234
X274.626Y-161.774
X274.626Y-164.314
X274.626Y-166.854
X274.626Y-169.394
X274.626Y-171.934
X274.626Y-174.474
X274.626Y-177.014
X276.0Y-118.594
X276.0Y-126.214
X276.13Y-121.95
X277.166Y-83.034
X277.166Y-85.574
X277.166Y-88.114
X277.166Y-93.194
X277.166Y-95.734
X277.166Y-98.274
X277.166Y-100.814
X277.166Y-103.354
X277.166Y-105.894
X277.166Y-131.294
X277.166Y-133.834
X277.166Y-136.374
X277.166Y-141.454
X277.166Y-143.994
X277.166Y-146.534
X277.166Y-149.074
X277.166Y-151.614
X277.166Y-154.154
X277.166Y-159.234
X277.166Y-161.774
X277.166Y-164.314
X277.166Y-166.854
X277.166Y-169.394
X277.166Y-171.934
X277.166Y-174.474
X277.166Y-177.014
X279.706Y-83.034
X279.706Y-85.574
X279.706Y-88.114
X279.706Y-93.194
X279.706Y-95.734
X279.706Y-98.274
X279.706Y-100.814
X279.706Y-116.054
X279.706Y-118.594
X279.706Y-123.674
X279.706Y-126.214
X279.706Y-128.754
X279.706Y-131.294
X279.706Y-133.834
X279.706Y-136.374
X279.706Y-141.454
X279.706Y-143.994
X279.706Y-146.534
X279.706Y-149.074
X279.706Y-151.614
X279.706Y-154.154
X279.706Y-159.234
X279.706Y-161.774
X279.706Y-164.314
X279.706Y-166.854
X279.706Y-169.394
X279.706Y-171.934
X279.706Y-174.474
X279.706Y-177.014
X282.246Y-83.034
X282.246Y-85.574
X282.246Y-88.114
X282.246Y-93.194
X282.246Y-95.734
X282.246Y-98.274
X282.246Y-100.814
X282.246Y-108.434
X282.246Y-110.974
X282.246Y-113.514
X282.246Y-116.054
X282.246Y-118.594
X282.246Y-128.754
X282.246Y-131.294
X282.246Y-133.834
X282.246Y-136.374
X282.246Y-143.994
X282.246Y-146.534
X282.246Y-149.074
X282.246Y-151.614
X282.246Y-161.774
X282.246Y-164.314
X282.246Y-166.854
X282.246Y-169.394
X282.246Y-171.934
X282.246Y-174.474
X282.246Y-177.014
X284.786Y-83.034
X284.786Y-85.574
X284.786Y-88.114
X284.786Y-93.194
X284.786Y-95.734
X284.786Y-98.274
X284.786Y-100.814
X284.786Y-103.354
X284.786Y-131.294
X284.786Y-133.834
X284.786Y-143.994
X284.786Y-146.534
X284.786Y-149.074
X284.786Y-151.614
X284.786Y-161.774
X284.786Y-169.394
X284.786Y-174.474
X284.786Y-177.014
X287.326Y-83.034
X287.326Y-85.574
X287.326Y-88.114
X287.326Y-93.194
X287.326Y-95.734
X287.326Y-98.274
X287.326Y-100.814
X287.326Y-103.354
X287.326Y-118.594
X287.326Y-123.674
X287.326Y-126.214
X287.326Y-128.754
X287.326Y-131.294
X287.326Y-133.834
X287.326Y-136.374
X287.326Y-138.914
X287.326Y-169.394
X287.326Y-174.474
X287.326Y-177.014
X289.866Y-83.034
X289.866Y-85.574
X289.866Y-88.114
X289.866Y-93.194
X289.866Y-95.734
X289.866Y-98.274
X289.866Y-100.814
X289.866Y-118.594
X289.866Y-123.674
X289.866Y-126.214
X289.866Y-128.754
X289.866Y-131.294
X289.866Y-133.834
X289.866Y-136.374
X289.866Y-138.914
X289.866Y-141.454
X289.866Y-143.994
X289.866Y-146.534
X289.866Y-149.074
X289.866Y-154.154
X289.866Y-159.234
X289.866Y-169.394
X289.866Y-174.474
X289.866Y-177.014
X292.406Y-83.034
X292.406Y-85.574
X292.406Y-88.114
X292.406Y-159.234
X292.406Y-164.314
X292.406Y-171.934
X292.406Y-174.474
X292.406Y-177.014
X293.25Y-121.95
X294.946Y-83.034
X294.946Y-85.574
X294.946Y-88.114
X294.946Y-90.654
X294.946Y-93.194
X294.946Y-95.734
X294.946Y-110.974
X294.946Y-118.594
X294.946Y-121.134
X294.946Y-123.674
X294.946Y-126.214
X294.946Y-128.754
X294.946Y-131.294
X294.946Y-133.834
X294.946Y-136.374
X294.946Y-138.914
X294.946Y-141.454
X294.946Y-143.994
X294.946Y-146.534
X294.946Y-149.074
X294.946Y-151.614
X294.946Y-154.154
X294.946Y-156.694
X294.946Y-159.234
X294.946Y-161.774
X294.946Y-164.314
X294.946Y-166.854
X294.946Y-169.394
X294.946Y-171.934
X297.486Y-83.034
X297.486Y-85.574
X297.486Y-143.994
X297.486Y-146.534
X297.486Y-149.074
X297.486Y-151.614
X297.486Y-154.154
X297.486Y-156.694
X297.486Y-159.234
X297.486Y-161.774
X297.486Y-164.314
X297.486Y-166.854
X297.486Y-169.394
X297.486Y-171.934
T2
X240.55Y-138.958
X240.55Y-141.498
X240.55Y-144.038
X271.4Y-88.161
X271.4Y-90.701
X271.4Y-93.241
X271.4Y-95.781
X271.4Y-98.321
X271.4Y-100.861
X271.4Y-103.401
X271.4Y-105.941
X271.4Y-108.481
X271.4Y-111.021
X271.4Y-113.561
X271.4Y-116.101
X271.4Y-118.641
X271.4Y-121.181
X271.4Y-123.721
X271.4Y-126.261
X271.4Y-128.801
X271.4Y-131.341
X271.4Y-133.881
X271.4Y-136.418
X271.4Y-138.958
X271.4Y-141.498
X297.26Y-88.161
X297.26Y-90.701
X297.26Y-93.241
X297.26Y-95.781
X297.26Y-98.321
X297.26Y-100.861
X297.26Y-103.401
X297.26Y-105.941
X297.26Y-108.481
X297.26Y-111.021
X297.26Y-113.561
X297.26Y-116.101
X297.26Y-118.641
X297.26Y-121.181
X297.26Y-123.721
X297.26Y-126.261
X297.26Y-128.801
X297.26Y-131.341
X297.26Y-133.881
X297.26Y-136.421
X297.26Y-138.961
X297.26Y-141.501
T3
X206.82Y-108.468
X206.82Y-111.007
X206.82Y-113.547
X206.82Y-116.087
X240.55Y-152.53
X248.15Y-152.53
X253.025Y-167.122
X253.025Y-169.662
X253.025Y-172.202
X264.21Y-99.59
X264.21Y-102.13
X264.21Y-104.67
X264.21Y-107.21
X264.21Y-109.75
X264.21Y-112.29
X264.21Y-114.83
X264.21Y-117.37
X264.21Y-119.91
X264.21Y-122.45
X264.21Y-124.99
X268.525Y-167.122
X268.525Y-169.662
X268.525Y-172.202
X268.89Y-146.41
X268.89Y-148.95
X268.89Y-151.49
X268.89Y-154.03
T4
X207.405Y-138.958
X207.405Y-150.458
X207.405Y-157.458
X212.105Y-138.958
X216.553Y-138.958
X216.553Y-150.458
X216.553Y-157.458
X221.253Y-138.958
X225.651Y-138.958
X225.651Y-150.458
X225.651Y-157.458
X230.351Y-138.958
T3
G00X209.15Y-166.195
M15
G01X210.65Y-166.195
M16
G05
G00X218.65Y-166.195
M15
G01X220.15Y-166.195
M16
G05
G00X228.15Y-166.195
M15
G01X229.65Y-166.195
M16
G05
G00X237.65Y-166.195
M15
G01X239.15Y-166.195
M16
G05
G00X285.7Y-165.557
M15
G01X288.3Y-165.557
M16
G05
G00X285.9Y-171.857
M15
G01X288.1Y-171.857
M16
G05
G00X291.8Y-167.357
M15
G01X291.8Y-169.557
M16
G05
M30
