%TF.GenerationSoftware,KiCad,Pcbnew,9.0.2*%
%TF.CreationDate,2026-05-28T11:02:04+07:00*%
%TF.ProjectId,IoT2526_HK2,496f5432-3532-4365-9f48-4b322e6b6963,rev?*%
%TF.SameCoordinates,Original*%
%TF.FileFunction,Paste,Top*%
%TF.FilePolarity,Positive*%
%FSLAX46Y46*%
G04 Gerber Fmt 4.6, Leading zero omitted, Abs format (unit mm)*
G04 Created by KiCad (PCBNEW 9.0.2) date 2026-05-28 11:02:04*
%MOMM*%
%LPD*%
G01*
G04 APERTURE LIST*
G04 Aperture macros list*
%AMRoundRect*
0 Rectangle with rounded corners*
0 $1 Rounding radius*
0 $2 $3 $4 $5 $6 $7 $8 $9 X,Y pos of 4 corners*
0 Add a 4 corners polygon primitive as box body*
4,1,4,$2,$3,$4,$5,$6,$7,$8,$9,$2,$3,0*
0 Add four circle primitives for the rounded corners*
1,1,$1+$1,$2,$3*
1,1,$1+$1,$4,$5*
1,1,$1+$1,$6,$7*
1,1,$1+$1,$8,$9*
0 Add four rect primitives between the rounded corners*
20,1,$1+$1,$2,$3,$4,$5,0*
20,1,$1+$1,$4,$5,$6,$7,0*
20,1,$1+$1,$6,$7,$8,$9,0*
20,1,$1+$1,$8,$9,$2,$3,0*%
G04 Aperture macros list end*
%ADD10RoundRect,0.150000X0.150000X-0.587500X0.150000X0.587500X-0.150000X0.587500X-0.150000X-0.587500X0*%
%ADD11R,0.600000X1.500000*%
%ADD12RoundRect,0.218750X0.218750X0.256250X-0.218750X0.256250X-0.218750X-0.256250X0.218750X-0.256250X0*%
%ADD13RoundRect,0.250000X0.300000X0.300000X-0.300000X0.300000X-0.300000X-0.300000X0.300000X-0.300000X0*%
%ADD14RoundRect,0.127500X0.322500X-0.297500X0.322500X0.297500X-0.322500X0.297500X-0.322500X-0.297500X0*%
%ADD15RoundRect,0.250000X0.300000X-0.300000X0.300000X0.300000X-0.300000X0.300000X-0.300000X-0.300000X0*%
%ADD16RoundRect,0.090000X0.210000X-0.410000X0.210000X0.410000X-0.210000X0.410000X-0.210000X-0.410000X0*%
%ADD17RoundRect,0.127500X0.297500X0.322500X-0.297500X0.322500X-0.297500X-0.322500X0.297500X-0.322500X0*%
%ADD18RoundRect,0.150000X0.587500X0.150000X-0.587500X0.150000X-0.587500X-0.150000X0.587500X-0.150000X0*%
%ADD19R,1.760000X1.400000*%
%ADD20R,1.760000X3.500000*%
%ADD21RoundRect,0.127500X-0.322500X0.297500X-0.322500X-0.297500X0.322500X-0.297500X0.322500X0.297500X0*%
%ADD22RoundRect,0.127500X-0.297500X-0.322500X0.297500X-0.322500X0.297500X0.322500X-0.297500X0.322500X0*%
%ADD23RoundRect,0.150000X0.875000X0.150000X-0.875000X0.150000X-0.875000X-0.150000X0.875000X-0.150000X0*%
%ADD24RoundRect,0.647700X0.647700X-1.155700X0.647700X1.155700X-0.647700X1.155700X-0.647700X-1.155700X0*%
G04 APERTURE END LIST*
D10*
%TO.C,Q1*%
X208420000Y-121499000D03*
X210320000Y-121499000D03*
X209370000Y-119624000D03*
%TD*%
D11*
%TO.C,U2*%
X212104796Y-123925000D03*
X209564796Y-123925000D03*
X209564796Y-130275000D03*
X212104796Y-130275000D03*
%TD*%
D12*
%TO.C,D10*%
X225650996Y-132615000D03*
X227225996Y-132615000D03*
%TD*%
D13*
%TO.C,D6*%
X221253296Y-134835000D03*
X218453296Y-134835000D03*
%TD*%
D14*
%TO.C,R5*%
X212104796Y-119949000D03*
X212104796Y-121499000D03*
%TD*%
%TO.C,R19*%
X225650996Y-124975000D03*
X225650996Y-126525000D03*
%TD*%
%TO.C,R17*%
X230350996Y-119949000D03*
X230350996Y-121499000D03*
%TD*%
D15*
%TO.C,D11*%
X264210000Y-90700520D03*
X264210000Y-87900520D03*
%TD*%
D16*
%TO.C,D8*%
X282399998Y-105760000D03*
X284299998Y-105760000D03*
X283349998Y-103485000D03*
%TD*%
D17*
%TO.C,C7*%
X293250000Y-115610000D03*
X294800000Y-115610000D03*
%TD*%
D12*
%TO.C,D7*%
X216553296Y-132615000D03*
X218128296Y-132615000D03*
%TD*%
D14*
%TO.C,C8*%
X275650000Y-138957800D03*
X275650000Y-140507800D03*
%TD*%
%TO.C,R9*%
X252145000Y-133834000D03*
X252145000Y-135384000D03*
%TD*%
%TO.C,C3*%
X284714800Y-158400000D03*
X284714800Y-159950000D03*
%TD*%
D11*
%TO.C,U5*%
X230350996Y-123925000D03*
X227810996Y-123925000D03*
X227810996Y-130275000D03*
X230350996Y-130275000D03*
%TD*%
D14*
%TO.C,C10*%
X273762000Y-138957800D03*
X273762000Y-140507800D03*
%TD*%
D17*
%TO.C,C6*%
X293250000Y-113570000D03*
X294800000Y-113570000D03*
%TD*%
D12*
%TO.C,D5*%
X288225000Y-151400000D03*
X289800000Y-151400000D03*
%TD*%
D11*
%TO.C,U4*%
X221253296Y-123925000D03*
X218713296Y-123925000D03*
X218713296Y-130275000D03*
X221253296Y-130275000D03*
%TD*%
D17*
%TO.C,C1*%
X287000000Y-162700000D03*
X288550000Y-162700000D03*
%TD*%
D18*
%TO.C,Q2*%
X250025000Y-135384000D03*
X250025000Y-133484000D03*
X248150000Y-134434000D03*
%TD*%
D10*
%TO.C,Q3*%
X217580000Y-121499000D03*
X219480000Y-121499000D03*
X218530000Y-119624000D03*
%TD*%
D12*
%TO.C,D3*%
X207404796Y-132615000D03*
X208979796Y-132615000D03*
%TD*%
D19*
%TO.C,U1*%
X287000000Y-153800000D03*
D20*
X293250000Y-156100000D03*
D19*
X287000000Y-156100000D03*
X287000000Y-158400000D03*
%TD*%
D21*
%TO.C,R6*%
X207404796Y-130275000D03*
X207404796Y-128725000D03*
%TD*%
D22*
%TO.C,R2*%
X212104796Y-132615000D03*
X210554796Y-132615000D03*
%TD*%
D14*
%TO.C,R13*%
X221253296Y-119949000D03*
X221253296Y-121499000D03*
%TD*%
D21*
%TO.C,R18*%
X225650996Y-130275000D03*
X225650996Y-128725000D03*
%TD*%
%TO.C,R14*%
X216553296Y-130275000D03*
X216553296Y-128725000D03*
%TD*%
D22*
%TO.C,R1*%
X288550000Y-160750000D03*
X287000000Y-160750000D03*
%TD*%
D21*
%TO.C,C4*%
X284689400Y-156100000D03*
X284689400Y-154550000D03*
%TD*%
D12*
%TO.C,D2*%
X291862500Y-160750000D03*
X290287500Y-160750000D03*
%TD*%
D17*
%TO.C,R8*%
X291700000Y-151400000D03*
X293250000Y-151400000D03*
%TD*%
D22*
%TO.C,R16*%
X230350996Y-132615000D03*
X228800996Y-132615000D03*
%TD*%
D23*
%TO.C,IC1*%
X286990000Y-116880000D03*
X286990000Y-115610000D03*
X286990000Y-114340000D03*
X286990000Y-113070000D03*
X286990000Y-111800000D03*
X286990000Y-110530000D03*
X286990000Y-109260000D03*
X286990000Y-107990000D03*
X277690000Y-107990000D03*
X277690000Y-109260000D03*
X277690000Y-110530000D03*
X277690000Y-111800000D03*
X277690000Y-113070000D03*
X277690000Y-114340000D03*
X277690000Y-115610000D03*
X277690000Y-116880000D03*
%TD*%
D14*
%TO.C,R7*%
X254050000Y-133834000D03*
X254050000Y-135384000D03*
%TD*%
D22*
%TO.C,R11*%
X221253296Y-132615000D03*
X219703296Y-132615000D03*
%TD*%
D10*
%TO.C,Q4*%
X226680000Y-121499000D03*
X228580000Y-121499000D03*
X227630000Y-119624000D03*
%TD*%
D17*
%TO.C,R21*%
X276140000Y-123300000D03*
X277690000Y-123300000D03*
%TD*%
D13*
%TO.C,D1*%
X212104796Y-134835000D03*
X209304796Y-134835000D03*
%TD*%
D14*
%TO.C,R10*%
X207404796Y-124975000D03*
X207404796Y-126525000D03*
%TD*%
%TO.C,R15*%
X216553296Y-124975000D03*
X216553296Y-126525000D03*
%TD*%
D21*
%TO.C,C5*%
X282750000Y-156100000D03*
X282750000Y-154550000D03*
%TD*%
%TO.C,C11*%
X266550000Y-90700520D03*
X266550000Y-89150520D03*
%TD*%
D14*
%TO.C,C2*%
X282750000Y-158400000D03*
X282750000Y-159950000D03*
%TD*%
D13*
%TO.C,D9*%
X230350996Y-134835000D03*
X227550996Y-134835000D03*
%TD*%
D22*
%TO.C,R12*%
X293250000Y-104520000D03*
X291700000Y-104520000D03*
%TD*%
D24*
%TO.C,BT1*%
X284299998Y-124474100D03*
X284299998Y-140272900D03*
%TD*%
D21*
%TO.C,C9*%
X268550000Y-90700520D03*
X268550000Y-89150520D03*
%TD*%
D22*
%TO.C,R20*%
X276140000Y-120640000D03*
X274590000Y-120640000D03*
%TD*%
M02*
